<svg width="24" height="22" viewBox="0 0 24 22" fill="none" xmlns="http://www.w3.org/2000/svg">
<g id=".MasterAppbarLogo">
<path id="Vector" d="M12.854 20.8184C11.5823 21.5528 9.95513 21.1166 9.22132 19.8449C8.48689 18.5732 8.92249 16.946 10.1948 16.2122C11.4665 15.4784 13.0931 15.914 13.8275 17.1863C14.562 18.4574 14.1264 20.084 12.854 20.8184Z" fill="white"/>
<path id="Vector_2" d="M9.22264 1.83138L0.430412 17.0665C-0.0963827 17.8786 -0.161076 18.9494 0.355861 19.8447C1.09029 21.1164 2.71689 21.5526 3.98859 20.8182C4.40879 20.5754 4.73534 20.2353 4.96084 19.8428L4.967 19.8471L13.8289 4.48938L13.8264 4.48815C14.2842 3.69272 14.3199 2.68227 13.8276 1.83077C13.0932 0.558451 11.4666 0.122228 10.1949 0.85666C9.7747 1.0988 9.44814 1.43952 9.22264 1.83138Z" fill="white"/>
<path id="Vector_3" d="M13.654 12.1669L18.0865 19.8445C18.8209 21.1162 20.4475 21.5524 21.7199 20.818C22.9922 20.0842 23.4278 18.457 22.6933 17.1853L18.2609 9.50702C17.5264 8.23532 15.8999 7.7991 14.6275 8.53414C13.3558 9.26796 12.9196 10.8952 13.654 12.1669Z" fill="white"/>
</g>
</svg>
